# xmcd
#
# Track frame offsets: 
#        150
#        13423
#        28381
#        47724
#        61815
#        72051
#        88210
#        102141
#        115008
#        129367
#        145898
#        162196
#
# Disc length: 2328 seconds
#
# Revision: 1
# Processed by: cddbd v1.5.2PL0 Copyright (c) Steve Scherf et al.
# Submitted via: ExactAudioCopy v0.99pb5
#
DISCID=a209160c
DTITLE=Indigo Girls - Holly Happy Days
DYEAR=2010
DGENRE=Country/Folk
TTITLE0=I Feel the Christmas Spirit
TTITLE1=It Really Is ( A Wonderful Life)
TTITLE2=O Holy Night
TTITLE3=Your Holiday Song
TTITLE4=I'll Be Home For Christmas
TTITLE5=Mistletoe
TTITLE6=Peace Child
TTITLE7=The Wonder Song
TTITLE8=In The Bleak Midwinter
TTITLE9=Happy Joyous Hanukkah
TTITLE10=Angerls We Have Heard On High
TTITLE11=There's Still My Joy
EXTD=
EXTT0=
EXTT1=
EXTT2=
EXTT3=
EXTT4=
EXTT5=
EXTT6=
EXTT7=
EXTT8=
EXTT9=
EXTT10=
EXTT11=
PLAYORDER=
